<svg width="523" height="154" viewBox="0 0 523 154" fill="none" xmlns="http://www.w3.org/2000/svg">
<g clip-path="url(#clip0_148_54)">
<path d="M108.19 99.9725L89.0126 77.0662L108.716 53.4204H141.377L120.731 78.1965L119.367 77.0662L120.726 75.9256L141.393 100.608H108.721L108.19 99.9725ZM110.903 97.6965L109.544 98.8371V97.061H137.596V98.8371L136.237 99.9725L117.059 77.0662L136.237 54.0558L137.596 55.1912V56.9621H109.544V55.1912L110.908 56.3267L92.6792 78.1965L91.3199 77.0662L92.6792 75.9256L110.903 97.6965Z" fill="#DDE6F6"/>
<path d="M210.152 64.4048C210.152 69.2433 209.027 73.634 206.777 77.5871C204.516 81.5662 201.188 84.7121 196.803 87.035C192.459 89.3319 187.235 90.4829 181.136 90.4829H172.225V88.7069H174.001V113.264H147.975V38.0298H181.136C190.386 38.0298 197.527 40.4152 202.558 45.1965C207.62 50.0037 210.152 56.4048 210.152 64.4048ZM206.605 64.4048C206.605 57.4204 204.443 51.8735 200.12 47.7694C195.771 43.6392 189.443 41.5715 181.136 41.5715H149.745V39.8006H151.516V111.493H149.745V109.722H172.225V111.493H170.454V86.936H181.136C186.652 86.936 191.318 85.9256 195.141 83.9048C198.922 81.9048 201.777 79.2121 203.698 75.8319C205.636 72.4256 206.605 68.6183 206.605 64.4048ZM178.605 69.2173C180.464 69.2173 181.808 68.8267 182.631 68.0506C183.422 67.3058 183.818 66.0923 183.818 64.4048C183.818 62.7225 183.422 61.509 182.631 60.759C181.808 59.9829 180.464 59.5975 178.605 59.5975H172.225V57.8267H174.001V70.9881H172.225V69.2173H178.605ZM178.605 72.759H170.454V56.0506H178.605C181.402 56.0506 183.558 56.759 185.063 58.1808C186.6 59.6287 187.365 61.7017 187.365 64.4048C187.365 67.1079 186.6 69.186 185.063 70.634C183.558 72.0506 181.402 72.759 178.605 72.759Z" fill="#DDE6F6"/>
<path d="M215.718 82.936C215.718 76.6652 216.802 71.2016 218.968 66.5454C221.172 61.8162 224.203 58.1964 228.067 55.6808C231.937 53.16 236.276 51.8995 241.083 51.8995C245.104 51.8995 248.604 52.7381 251.573 54.4047C254.573 56.0922 256.859 58.4047 258.442 61.337L256.88 62.1808H255.109V52.6079H281.031V113.264H255.109V103.696H256.88L258.442 104.535C256.859 107.472 254.573 109.78 251.573 111.467C248.604 113.139 245.104 113.972 241.083 113.972C236.276 113.972 231.937 112.712 228.067 110.191C224.203 107.681 221.172 104.061 218.968 99.3318C216.802 94.6704 215.718 89.2068 215.718 82.936ZM219.26 82.936C219.26 88.686 220.234 93.6495 222.182 97.8318C224.099 101.952 226.703 105.077 230 107.222C233.281 109.363 236.979 110.431 241.083 110.431C244.484 110.431 247.401 109.748 249.833 108.379C252.234 107.03 254.062 105.186 255.317 102.858L258.651 103.696V111.493H256.88V109.722H279.26V111.493H277.484V54.3787H279.26V56.1547H256.88V54.3787H258.651V62.1808L255.317 63.0193C254.062 60.686 252.234 58.8475 249.833 57.4933C247.401 56.1287 244.484 55.4464 241.083 55.4464C236.979 55.4464 233.281 56.5141 230 58.6495C226.703 60.7954 224.099 63.9256 222.182 68.0402C220.234 72.2225 219.26 77.1912 219.26 82.936ZM255.109 82.936C255.109 80.3579 254.489 78.3995 253.244 77.0506C252.047 75.7433 250.489 75.087 248.578 75.087C246.666 75.087 245.109 75.7433 243.906 77.0506C242.666 78.3995 242.047 80.3579 242.047 82.936C242.047 85.5141 242.666 87.4777 243.906 88.8266C245.109 90.1339 246.666 90.785 248.578 90.785C250.489 90.785 252.047 90.1339 253.244 88.8266C254.489 87.4777 255.109 85.5141 255.109 82.936ZM258.651 82.936C258.651 86.436 257.718 89.1964 255.854 91.2277C253.953 93.2954 251.526 94.3318 248.578 94.3318C245.63 94.3318 243.203 93.2954 241.297 91.2277C239.432 89.1964 238.5 86.436 238.5 82.936C238.5 79.436 239.432 76.6756 241.297 74.6495C243.203 72.5818 245.63 71.5454 248.578 71.5454C251.526 71.5454 253.953 72.5818 255.854 74.6495C257.718 76.6756 258.651 79.436 258.651 82.936Z" fill="#DDE6F6"/>
<path d="M331.763 92.3527V113.264H321.482C313.164 113.264 306.872 111.144 302.612 106.9C298.351 102.655 296.216 96.3891 296.216 88.1027V73.1131H297.992V74.8891H289.127V52.6079H297.992V54.3787H296.216V38.837H322.242V54.3787H320.471V52.6079H331.56V74.8891H320.471V73.1131H322.242V88.5089C322.242 89.3475 322.377 89.8995 322.653 90.1547C322.95 90.4412 323.607 90.5818 324.622 90.5818H331.763V92.3527ZM328.216 92.3527H329.987V94.1287H324.622C322.664 94.1287 321.195 93.66 320.216 92.7277C319.206 91.7745 318.7 90.3631 318.7 88.5089V71.3422H329.789V73.1131H328.013V54.3787H329.789V56.1547H318.7V40.6079H320.471V42.3839H297.992V40.6079H299.763V56.1547H290.903V54.3787H292.674V73.1131H290.903V71.3422H299.763V88.1027C299.763 95.41 301.544 100.837 305.112 104.389C308.685 107.946 314.138 109.722 321.482 109.722H329.987V111.493H328.216V92.3527Z" fill="#DDE6F6"/>
<path d="M385.079 15.186L357.928 133.316H332.72L360.475 13.0142H385.579L385.079 15.186ZM381.626 14.3892L383.355 14.785V16.561H361.887V14.785L363.61 15.186L336.678 131.941L334.949 131.545V129.769H356.517V131.545L354.793 131.144L381.626 14.3892Z" fill="#DDE6F6"/>
<path d="M386.087 53.4204H414.967L434.67 77.0662L414.962 100.608H382.29L402.956 75.9256L404.311 77.0662L402.951 78.1965L382.3 53.4204H386.087ZM386.087 56.9621V55.1912L387.446 54.0558L406.623 77.0662L387.446 99.9725L386.087 98.8371V97.061H414.133V98.8371L412.779 97.6965L431.003 75.9256L432.363 77.0662L431.003 78.1965L412.774 56.3267L414.133 55.1912V56.9621H386.087Z" fill="#DDE6F6"/>
</g>
<defs>
<clipPath id="clip0_148_54">
<rect width="523" height="154" fill="white"/>
</clipPath>
</defs>
</svg>
