<svg width="354" height="154" viewBox="0 0 354 154" fill="none" xmlns="http://www.w3.org/2000/svg">
<mask id="mask0_153_25" style="mask-type:luminance" maskUnits="userSpaceOnUse" x="-1" y="-1" width="355" height="156">
<path d="M-0.265625 -0.348877H354V154.438H-0.265625V-0.348877Z" fill="white"/>
</mask>
<g mask="url(#mask0_153_25)">
<mask id="mask1_153_25" style="mask-type:luminance" maskUnits="userSpaceOnUse" x="-1" y="-1" width="355" height="156">
<path d="M59.6042 -0.348877H293.786C326.854 -0.348877 353.656 26.4584 353.656 59.5209V94.5678C353.656 127.63 326.854 154.438 293.786 154.438H59.6042C26.5417 154.438 -0.265625 127.63 -0.265625 94.5678V59.5209C-0.265625 26.4584 26.5417 -0.348877 59.6042 -0.348877Z" fill="white"/>
</mask>
<g mask="url(#mask1_153_25)">
<path d="M-0.265625 -0.348877H353.443V154.438H-0.265625V-0.348877Z" fill="#021525"/>
</g>
</g>
<path d="M23.1405 99.9591L3.979 77.0684L23.6665 53.4382H56.3071L35.6769 78.1986L34.3123 77.0632L35.6717 75.9278L56.3228 100.589H23.6717L23.1405 99.9591ZM25.854 97.683L24.4998 98.8184V97.0476H52.5311V98.8184L51.1717 99.9591L32.005 77.0684L51.1665 54.0736L52.5311 55.2091V56.9799H24.4998V55.2091L25.8592 56.3393L7.64567 78.1986L6.2863 77.0632L7.64046 75.9278L25.854 97.683Z" fill="white"/>
<path d="M125.032 64.4173C125.032 69.2454 123.907 73.6361 121.663 77.584C119.402 81.5632 116.079 84.709 111.694 87.0267C107.35 89.3236 102.137 90.4746 96.0376 90.4746H87.1366V88.7038H88.9074V113.24H62.897V38.0527H96.0376C105.282 38.0527 112.418 40.4434 117.449 45.2194C122.501 50.0215 125.032 56.4225 125.032 64.4173ZM121.491 64.4173C121.491 57.4329 119.329 51.8913 115.006 47.7871C110.663 43.6621 104.34 41.5944 96.0376 41.5944H64.6678V39.8236H66.4386V111.469H64.6678V109.699H87.1366V111.469H85.3657V86.9329H96.0376C101.548 86.9329 106.215 85.9173 110.038 83.8965C113.814 81.9017 116.663 79.2142 118.584 75.834C120.522 72.4277 121.491 68.6204 121.491 64.4173ZM93.5116 69.2194C95.3709 69.2194 96.7095 68.834 97.5324 68.0579C98.3241 67.3132 98.7199 66.0996 98.7199 64.4173C98.7199 62.735 98.3241 61.5163 97.5324 60.7715C96.7095 59.9954 95.3709 59.61 93.5116 59.61H87.1366V57.8392H88.9074V70.9902H87.1366V69.2194H93.5116ZM93.5116 72.7663H85.3657V56.0684H93.5116C96.3032 56.0684 98.4543 56.7767 99.9595 58.1934C101.496 59.6413 102.262 61.7142 102.262 64.4173C102.262 67.1152 101.496 69.1934 99.9595 70.6361C98.4543 72.0527 96.3032 72.7663 93.5116 72.7663Z" fill="white"/>
<path d="M130.596 82.9331C130.596 76.6675 131.68 71.2091 133.846 66.5529C136.044 61.8289 139.075 58.2091 142.935 55.6987C146.805 53.1779 151.138 51.9175 155.94 51.9175C159.961 51.9175 163.456 52.7508 166.424 54.4227C169.419 56.1102 171.711 58.4175 173.289 61.3498L171.726 62.1883H169.956V52.6258H195.862V113.24H169.956V103.678H171.726L173.289 104.516C171.711 107.449 169.419 109.761 166.424 111.444C163.456 113.115 159.961 113.949 155.94 113.949C151.138 113.949 146.805 112.688 142.935 110.173C139.075 107.657 136.044 104.042 133.846 99.3133C131.68 94.6571 130.596 89.1987 130.596 82.9331ZM134.138 82.9331C134.138 88.6779 135.112 93.6362 137.055 97.8185C138.971 101.933 141.575 105.058 144.867 107.204C148.148 109.339 151.841 110.407 155.94 110.407C159.341 110.407 162.258 109.725 164.69 108.36C167.086 107.006 168.914 105.167 170.169 102.839L173.497 103.678V111.47H171.726V109.699H194.091V111.47H192.32V54.3966H194.091V56.1675H171.726V54.3966H173.497V62.1883L170.169 63.0269C168.914 60.6987 167.086 58.8602 164.69 57.5112C162.258 56.1414 159.341 55.4591 155.94 55.4591C151.841 55.4591 148.148 56.5269 144.867 58.6623C141.575 60.8081 138.971 63.9331 137.055 68.0477C135.112 72.23 134.138 77.1935 134.138 82.9331ZM169.956 82.9331C169.956 80.3602 169.336 78.3966 168.096 77.0477C166.898 75.7456 165.341 75.0894 163.43 75.0894C161.518 75.0894 159.966 75.7456 158.763 77.0477C157.523 78.3966 156.903 80.3602 156.903 82.9331C156.903 85.5112 157.523 87.4696 158.763 88.8185C159.966 90.1258 161.518 90.7769 163.43 90.7769C165.341 90.7769 166.898 90.1258 168.096 88.8185C169.336 87.4696 169.956 85.5112 169.956 82.9331ZM173.497 82.9331C173.497 86.4279 172.565 89.1883 170.706 91.2144C168.799 93.2821 166.377 94.3185 163.43 94.3185C160.482 94.3185 158.06 93.2821 156.159 91.2144C154.294 89.1883 153.362 86.4279 153.362 82.9331C153.362 79.4383 154.294 76.6779 156.159 74.6519C158.06 72.5841 160.482 71.5477 163.43 71.5477C166.377 71.5477 168.799 72.5841 170.706 74.6519C172.565 76.6779 173.497 79.4383 173.497 82.9331Z" fill="white"/>
<path d="M246.558 92.3444V113.24H236.287C227.974 113.24 221.688 111.12 217.427 106.881C213.167 102.636 211.037 96.3757 211.037 88.0944V73.1204H212.808V74.8913H203.953V52.6257H212.808V54.3965H211.037V38.8652H237.047V54.3965H235.276V52.6257H246.354V74.8913H235.276V73.1204H237.047V88.5007C237.047 89.3392 237.183 89.8913 237.453 90.1465C237.755 90.4329 238.412 90.5736 239.422 90.5736H246.558V92.3444ZM243.016 92.3444H244.787V94.1152H239.422C237.469 94.1152 236 93.6517 235.016 92.7194C234.011 91.7611 233.505 90.3548 233.505 88.5007V71.3444H244.584V73.1204H242.813V54.3965H244.584V56.1673H233.505V40.6361H235.276V42.4069H212.808V40.6361H214.578V56.1673H205.724V54.3965H207.495V73.1204H205.724V71.3444H214.578V88.0944C214.578 95.3965 216.365 100.818 219.927 104.37C223.495 107.923 228.948 109.699 236.287 109.699H244.787V111.469H243.016V92.3444Z" fill="white"/>
<path d="M299.839 15.2299L272.709 133.277H247.516L275.251 13.0632H300.339L299.839 15.2299ZM296.386 14.433L298.115 14.8341V16.6049H276.662V14.8341L278.386 15.2299L251.469 131.902L249.746 131.506V129.735H271.298V131.506L269.574 131.11L296.386 14.433Z" fill="white"/>
<path d="M300.846 53.4382H329.705L349.398 77.0684L329.7 100.589H297.049L317.7 75.9278L319.059 77.0632L317.7 78.1986L297.065 53.4382H300.846ZM300.846 56.9799V55.2091L302.205 54.0736L321.367 77.0684L302.2 99.9591L300.846 98.8184V97.0476H328.872V98.8184L327.518 97.683L345.731 75.9278L347.091 77.0632L345.726 78.1986L327.513 56.3393L328.872 55.2091V56.9799H300.846Z" fill="white"/>
</svg>
