<svg xmlns="http://www.w3.org/2000/svg" xmlns:xlink="http://www.w3.org/1999/xlink" width="634" zoomAndPan="magnify" viewBox="0 0 475.5 206.249992" height="275" preserveAspectRatio="xMidYMid meet" version="1.2"><defs><clipPath id="360eeee91e"><path d="M 41.683594 44.433594 L 433.261719 44.433594 L 433.261719 160.351562 L 41.683594 160.351562 Z M 41.683594 44.433594 "/></clipPath><clipPath id="bcb25f8482"><path d="M 41.695312 44.433594 L 432.972656 44.433594 L 432.972656 160.265625 L 41.695312 160.265625 Z M 41.695312 44.433594 "/></clipPath></defs><g id="fad0ec0a15"><g clip-rule="nonzero" clip-path="url(#360eeee91e)"><path style=" stroke:none;fill-rule:nonzero;fill:#021525;fill-opacity:1;" d="M 41.683594 44.433594 L 433.359375 44.433594 L 433.359375 160.351562 L 41.683594 160.351562 Z M 41.683594 44.433594 "/></g><g clip-rule="nonzero" clip-path="url(#bcb25f8482)"><path style="fill:none;stroke-width:8;stroke-linecap:butt;stroke-linejoin:miter;stroke:#ffffff;stroke-opacity:1;stroke-miterlimit:4;" d="M -0.00157064 -0.00228475 L 523.96816 -0.00228475 L 523.96816 155.11142 L -0.00157064 155.11142 Z M -0.00157064 -0.00228475 " transform="matrix(0.746756,0,0,0.746756,41.696485,44.4353)"/></g><g style="fill:#ffffff;fill-opacity:1;"><g transform="translate(51.330074, 138.637216)"><path style="stroke:none" d="M 8.21875 -22.828125 L 8.21875 -36.171875 L 49.796875 -58.40625 L 49.796875 -45.0625 L 21.078125 -29.875 L 21.078125 -29.109375 L 49.796875 -13.921875 L 49.796875 -0.578125 Z M 8.21875 -22.828125 "/></g></g><g style="fill:#5ce1e6;fill-opacity:1;"><g transform="translate(114.183542, 138.637216)"><path style="stroke:none" d="M 7.34375 0 L 7.34375 -67.5 L 33.453125 -67.5 C 36.742188 -67.5 39.675781 -67 42.25 -66 C 44.832031 -65 47.007812 -63.5625 48.78125 -61.6875 C 50.5625 -59.820312 51.898438 -57.566406 52.796875 -54.921875 C 53.703125 -52.285156 54.15625 -49.320312 54.15625 -46.03125 C 54.15625 -42.738281 53.703125 -39.769531 52.796875 -37.125 C 51.898438 -34.488281 50.5625 -32.234375 48.78125 -30.359375 C 47.007812 -28.492188 44.832031 -27.0625 42.25 -26.0625 C 39.675781 -25.0625 36.742188 -24.5625 33.453125 -24.5625 L 21.953125 -24.5625 L 21.953125 0 Z M 21.953125 -36.265625 L 29.78125 -36.265625 C 33.195312 -36.265625 35.566406 -36.90625 36.890625 -38.1875 C 38.210938 -39.476562 38.875 -41.609375 38.875 -44.578125 L 38.875 -47.484375 C 38.875 -50.441406 38.210938 -52.566406 36.890625 -53.859375 C 35.566406 -55.148438 33.195312 -55.796875 29.78125 -55.796875 L 21.953125 -55.796875 Z M 21.953125 -36.265625 "/></g></g><g style="fill:#5ce1e6;fill-opacity:1;"><g transform="translate(177.033567, 138.637216)"><path style="stroke:none" d="M 47.09375 0 C 44.125 0 41.738281 -0.753906 39.9375 -2.265625 C 38.132812 -3.785156 37.070312 -5.960938 36.75 -8.796875 L 36.265625 -8.796875 C 35.359375 -5.515625 33.566406 -3.035156 30.890625 -1.359375 C 28.222656 0.316406 24.953125 1.15625 21.078125 1.15625 C 16.242188 1.15625 12.359375 -0.144531 9.421875 -2.75 C 6.492188 -5.363281 5.03125 -9.023438 5.03125 -13.734375 C 5.03125 -18.953125 6.929688 -22.816406 10.734375 -25.328125 C 14.535156 -27.847656 20.113281 -29.109375 27.46875 -29.109375 L 35.484375 -29.109375 L 35.484375 -31.625 C 35.484375 -34.582031 34.789062 -36.816406 33.40625 -38.328125 C 32.019531 -39.847656 29.6875 -40.609375 26.40625 -40.609375 C 23.375 -40.609375 20.921875 -40.03125 19.046875 -38.875 C 17.179688 -37.71875 15.570312 -36.203125 14.21875 -34.328125 L 6.375 -41.296875 C 8.050781 -44.128906 10.675781 -46.460938 14.25 -48.296875 C 17.832031 -50.140625 22.429688 -51.0625 28.046875 -51.0625 C 34.878906 -51.0625 40.210938 -49.492188 44.046875 -46.359375 C 47.878906 -43.234375 49.796875 -38.515625 49.796875 -32.203125 L 49.796875 -10.34375 L 55.3125 -10.34375 L 55.3125 0 Z M 26.5 -8.21875 C 29.007812 -8.21875 31.132812 -8.828125 32.875 -10.046875 C 34.613281 -11.273438 35.484375 -13.050781 35.484375 -15.375 L 35.484375 -21.375 L 27.84375 -21.375 C 21.976562 -21.375 19.046875 -19.40625 19.046875 -15.46875 L 19.046875 -13.53125 C 19.046875 -11.789062 19.722656 -10.46875 21.078125 -9.5625 C 22.429688 -8.664062 24.238281 -8.21875 26.5 -8.21875 Z M 26.5 -8.21875 "/></g></g><g style="fill:#5ce1e6;fill-opacity:1;"><g transform="translate(239.883591, 138.637216)"><path style="stroke:none" d="M 32.875 0 C 27.71875 0 23.878906 -1.351562 21.359375 -4.0625 C 18.847656 -6.769531 17.59375 -10.21875 17.59375 -14.40625 L 17.59375 -38.78125 L 4.0625 -38.78125 L 4.0625 -49.90625 L 12.859375 -49.90625 C 14.984375 -49.90625 16.5 -50.320312 17.40625 -51.15625 C 18.3125 -51.988281 18.765625 -53.535156 18.765625 -55.796875 L 18.765625 -67.5 L 31.90625 -67.5 L 31.90625 -49.90625 L 51.34375 -49.90625 L 51.34375 -38.78125 L 31.90625 -38.78125 L 31.90625 -11.125 L 51.34375 -11.125 L 51.34375 0 Z M 32.875 0 "/></g></g><g style="fill:#ffffff;fill-opacity:1;"><g transform="translate(302.74395, 138.637216)"><path style="stroke:none" d="M 7.0625 13.34375 L 38.09375 -73.5 L 50.96875 -73.5 L 19.921875 13.34375 Z M 7.0625 13.34375 "/></g></g><g style="fill:#ffffff;fill-opacity:1;"><g transform="translate(365.593975, 138.637216)"><path style="stroke:none" d="M 8.21875 -13.921875 L 36.9375 -29.109375 L 36.9375 -29.875 L 8.21875 -45.0625 L 8.21875 -58.40625 L 49.796875 -36.171875 L 49.796875 -22.828125 L 8.21875 -0.578125 Z M 8.21875 -13.921875 "/></g></g></g></svg>